<?xml version="1.0" encoding="utf-8"?>
<!-- Generator: Adobe Illustrator 24.3.0, SVG Export Plug-In . SVG Version: 6.00 Build 0)  -->
<svg version="1.1" id="レイヤー_1" xmlns="http://www.w3.org/2000/svg" xmlns:xlink="http://www.w3.org/1999/xlink" x="0px"
	 y="0px" viewBox="0 0 800 250" style="enable-background:new 0 0 800 250;" xml:space="preserve">
<style type="text/css">
	.st0{fill:#005BAB;stroke:#FFFFFF;stroke-width:1.7419;stroke-linecap:round;stroke-linejoin:round;}
	.st1{fill:url(#XMLID_2_);stroke:#FFFFFF;stroke-width:1.7419;stroke-linecap:round;stroke-linejoin:round;}
	.st2{fill:url(#XMLID_3_);stroke:#FFFFFF;stroke-width:1.7419;stroke-linecap:round;stroke-linejoin:round;}
	.st3{fill:url(#XMLID_4_);stroke:#FFFFFF;stroke-width:1.7419;stroke-linecap:round;stroke-linejoin:round;}
	.st4{fill:url(#XMLID_5_);stroke:#FFFFFF;stroke-width:1.7419;stroke-linecap:round;stroke-linejoin:round;}
	.st5{fill:url(#XMLID_6_);stroke:#FFFFFF;stroke-width:1.7419;stroke-linecap:round;stroke-linejoin:round;}
	.st6{fill:url(#XMLID_7_);stroke:#FFFFFF;stroke-width:1.7419;stroke-linecap:round;stroke-linejoin:round;}
	.st7{fill:url(#XMLID_8_);stroke:#FFFFFF;stroke-width:1.7419;stroke-linecap:round;stroke-linejoin:round;}
	.st8{fill:url(#XMLID_9_);stroke:#FFFFFF;stroke-width:1.7419;stroke-linecap:round;stroke-linejoin:round;}
	.st9{fill:url(#XMLID_10_);stroke:#FFFFFF;stroke-width:1.7419;stroke-linecap:round;stroke-linejoin:round;}
	.st10{fill:#004EA2;}
	.st11{fill:url(#XMLID_11_);}
	.st12{fill:url(#XMLID_12_);}
	.st13{fill:url(#XMLID_13_);}
	.st14{fill:url(#XMLID_14_);}
	.st15{fill:url(#XMLID_15_);}
	.st16{fill:url(#XMLID_16_);}
	.st17{fill:url(#XMLID_17_);}
	.st18{fill:url(#XMLID_18_);}
	.st19{fill:url(#XMLID_19_);}
</style>
<g id="XMLID_43_">
	<g id="XMLID_63_">
		<g id="XMLID_77_">
			<g id="XMLID_79_">
				<path id="XMLID_80_" class="st0" d="M546.82,59.51c-45.73,0-55.07,31-55.07,31l-33.82,89.11h-99.93l46.21-120.11h-42.63
					l-50.39,130.97h185.25l19.36-50.38h22.99l4.14-10.85h-22.96l17.66-45.9c13.47-12.67,32.62-9.73,41.75-9.11
					c1.43,0.08,2.51,0.28,3.44,0.53l-44.51,115.72h42.59l50.39-130.97H546.82z"/>
			</g>
			<path id="XMLID_40_" class="st0" d="M718.45,59.57l-23.98,62.27l-2.5,7.03l-1.52,3.83h-3.86h-13.43c0,0-3.34,0.07-5.03-3.21
				c-1.37-2.56-0.19-5.37-0.19-5.37l24.84-64.59h-44.33l-50.41,130.98h44.56l15.22-39.58h45.38c34.05,0,47.43-15.26,59.24-46.02
				C775.73,70.43,745.9,60.23,718.45,59.57z"/>
		</g>
		<g id="XMLID_64_">
			<g id="XMLID_73_">
				
					<linearGradient id="XMLID_2_" gradientUnits="userSpaceOnUse" x1="-1290.7375" y1="1073.6224" x2="-616.2526" y2="1073.6224" gradientTransform="matrix(0.294 0 0 0.294 444.6707 -178.3005)">
					<stop  offset="0" style="stop-color:#E6E6E6"/>
					<stop  offset="1" style="stop-color:#999999"/>
				</linearGradient>
				<path id="XMLID_39_" class="st1" d="M161.88,179.98c-17.88,5.53-34.03,5.04-46.61-1.48c-24.42-12.6-30.77-58.35-23.79-100.11
					c-15.22,59.01-1.06,97.2,27.07,112.66c12.31,6.75,28.1,6.83,46.39,1.16c33.04-10.26,69.61-38.49,102.04-77.43V96.52
					C236.19,139.23,196,169.37,161.88,179.98z"/>
				
					<linearGradient id="XMLID_3_" gradientUnits="userSpaceOnUse" x1="-1290.7424" y1="970.1511" x2="-616.2054" y2="970.1511" gradientTransform="matrix(0.294 0 0 0.294 444.6707 -178.3005)">
					<stop  offset="0" style="stop-color:#E6E6E6"/>
					<stop  offset="1" style="stop-color:#999999"/>
				</linearGradient>
				<path id="XMLID_38_" class="st2" d="M259.73,56.1c-43.57,70.82-107.62,113.43-143.09,95.14
					c-26.75-13.78-31.19-57.83-12.41-109.17c-3.54,7.85-5.42,15.23-7.68,22.04c-13.6,50.79-4.62,93.9,22.38,103.69
					c11.48,4.19,24.24,5.89,40.05,0.98c35.46-11.01,75.8-45.95,108-92.86V43.64C264.66,47.8,262.27,51.94,259.73,56.1z"/>
				
					<linearGradient id="XMLID_4_" gradientUnits="userSpaceOnUse" x1="-1290.8639" y1="1057.3119" x2="-616.3044" y2="1057.3119" gradientTransform="matrix(0.294 0 0 0.294 444.6707 -178.3005)">
					<stop  offset="0" style="stop-color:#E6E6E6"/>
					<stop  offset="1" style="stop-color:#999999"/>
				</linearGradient>
				<path id="XMLID_37_" class="st3" d="M168.23,203.3c-20.33,6.3-38.61,5.75-52.94-1.63C78.18,182.52,70.66,126.98,97.24,56.6
					c1.56-5.24,3.44-10.37,5.46-15.34c-41.05,82.87-37.8,158.86,11.09,178.1c40.54,15.93,100.91-11.87,153.19-64.74v-22.36
					C235.65,167.93,200.22,193.38,168.23,203.3z"/>
			</g>
			<g id="XMLID_69_">
				
					<linearGradient id="XMLID_5_" gradientUnits="userSpaceOnUse" x1="-729.29" y1="989.7049" x2="-1401.9583" y2="989.7049" gradientTransform="matrix(0.294 0 0 0.294 444.6707 -178.3005)">
					<stop  offset="0" style="stop-color:#E9EDF7"/>
					<stop  offset="1" style="stop-color:#005BAB"/>
				</linearGradient>
				<path id="XMLID_36_" class="st4" d="M139.41,70.05c17.86-5.54,33.96-5.04,46.55,1.46c24.49,12.61,30.83,58.34,23.82,100.12
					c15.21-59.01,1.06-97.21-27.1-112.65c-12.31-6.76-28.1-6.83-46.38-1.16c-32.97,10.24-69.61,38.47-102.01,77.43v18.24
					C65.1,110.76,105.24,80.64,139.41,70.05z"/>
				
					<linearGradient id="XMLID_6_" gradientUnits="userSpaceOnUse" x1="-752.0856" y1="1093.1238" x2="-1401.9297" y2="1093.1238" gradientTransform="matrix(0.294 0 0 0.294 444.6707 -178.3005)">
					<stop  offset="0" style="stop-color:#E9EDF7"/>
					<stop  offset="1" style="stop-color:#005BAB"/>
				</linearGradient>
				<path id="XMLID_35_" class="st5" d="M41.56,193.91c43.53-70.84,107.6-113.45,143.09-95.17c26.73,13.8,31.16,57.86,12.33,109.19
					c3.58-7.84,5.47-15.23,7.71-22.02c13.59-50.8,4.63-93.92-22.35-103.71c-11.5-4.17-24.27-5.88-40.08-0.97
					c-35.43,11.01-75.77,45.95-107.99,92.86v32.28C36.59,202.19,39.02,198.06,41.56,193.91z"/>
				
					<linearGradient id="XMLID_7_" gradientUnits="userSpaceOnUse" x1="-679.4716" y1="1005.9592" x2="-1401.8827" y2="1005.9592" gradientTransform="matrix(0.294 0 0 0.294 444.6707 -178.3005)">
					<stop  offset="0" style="stop-color:#E9EDF7"/>
					<stop  offset="1" style="stop-color:#005BAB"/>
				</linearGradient>
				<path id="XMLID_34_" class="st6" d="M133.06,46.69c20.32-6.3,38.58-5.73,52.9,1.63c37.15,19.16,44.65,74.71,18.06,145.08
					c-1.6,5.23-3.41,10.37-5.45,15.34c41.04-82.86,37.82-158.85-11.14-178.11c-40.5-15.93-100.9,11.88-153.14,64.74v22.37
					C65.65,82.07,101.06,56.63,133.06,46.69z"/>
			</g>
			<g id="XMLID_65_">
				
					<linearGradient id="XMLID_8_" gradientUnits="userSpaceOnUse" x1="-1290.7999" y1="1100.8285" x2="-616.2651" y2="1100.8285" gradientTransform="matrix(0.294 0 0 0.294 444.6707 -178.3005)">
					<stop  offset="0" style="stop-color:#E6E6E6"/>
					<stop  offset="1" style="stop-color:#999999"/>
				</linearGradient>
				<path id="XMLID_33_" class="st7" d="M164.94,192.21c33.04-10.26,69.61-38.49,102.04-77.43V96.52
					c-30.78,42.72-70.97,72.85-105.1,83.46c-1.41,0.44-2.81,0.75-4.18,1.11v13.08C160.07,193.62,162.46,192.95,164.94,192.21z"/>
				
					<linearGradient id="XMLID_9_" gradientUnits="userSpaceOnUse" x1="-1290.7999" y1="968.3063" x2="-616.2651" y2="968.3063" gradientTransform="matrix(0.294 0 0 0.294 444.6707 -178.3005)">
					<stop  offset="0" style="stop-color:#E6E6E6"/>
					<stop  offset="1" style="stop-color:#999999"/>
				</linearGradient>
				<path id="XMLID_32_" class="st8" d="M266.98,75.92V43.64c-2.32,4.16-4.7,8.3-7.25,12.46c-29.7,48.24-68.85,83.38-102.02,95.11
					v17.91c0.42-0.11,0.81-0.2,1.28-0.34C194.44,157.77,234.78,122.83,266.98,75.92z"/>
				
					<linearGradient id="XMLID_10_" gradientUnits="userSpaceOnUse" x1="-1290.7999" y1="1208.7465" x2="-616.2651" y2="1208.7465" gradientTransform="matrix(0.294 0 0 0.294 444.6707 -178.3005)">
					<stop  offset="0" style="stop-color:#E6E6E6"/>
					<stop  offset="1" style="stop-color:#999999"/>
				</linearGradient>
				<path id="XMLID_31_" class="st9" d="M266.98,154.63v-22.36c-31.32,35.66-66.76,61.11-98.75,71.03c-3.6,1.1-7.07,1.94-10.53,2.62
					v15.94C191.99,215,231.34,190.64,266.98,154.63z"/>
			</g>
		</g>
	</g>
	<g id="XMLID_44_">
		<g id="XMLID_58_">
			<g id="XMLID_60_">
				<path id="XMLID_61_" class="st10" d="M546.82,59.51c-45.73,0-55.07,31-55.07,31l-33.82,89.11h-99.93l46.21-120.11h-42.63
					l-50.39,130.97h185.25l19.36-50.38h22.99l4.14-10.85h-22.96l17.66-45.9c13.47-12.67,32.62-9.73,41.75-9.11
					c1.43,0.08,2.51,0.28,3.44,0.53l-44.51,115.72h42.59l50.39-130.97H546.82z"/>
			</g>
			<path id="XMLID_29_" class="st10" d="M718.45,59.57l-23.98,62.27l-2.5,7.03l-1.52,3.83h-3.86h-13.43c0,0-3.34,0.07-5.03-3.21
				c-1.37-2.56-0.19-5.37-0.19-5.37l24.84-64.59h-44.33l-50.41,130.98h44.56l15.22-39.58h45.38c34.05,0,47.43-15.26,59.24-46.02
				C775.73,70.43,745.9,60.23,718.45,59.57z"/>
		</g>
		<g id="XMLID_45_">
			<g id="XMLID_54_">
				
					<linearGradient id="XMLID_11_" gradientUnits="userSpaceOnUse" x1="-1290.7375" y1="1073.6224" x2="-616.2526" y2="1073.6224" gradientTransform="matrix(0.294 0 0 0.294 444.6707 -178.3005)">
					<stop  offset="0" style="stop-color:#E6E6E6"/>
					<stop  offset="1" style="stop-color:#999999"/>
				</linearGradient>
				<path id="XMLID_28_" class="st11" d="M161.88,179.98c-17.88,5.53-34.03,5.04-46.61-1.48c-24.42-12.6-30.77-58.35-23.79-100.11
					c-15.22,59.01-1.06,97.2,27.07,112.66c12.31,6.75,28.1,6.83,46.39,1.16c33.04-10.26,69.61-38.49,102.04-77.43V96.52
					C236.19,139.23,196,169.37,161.88,179.98z"/>
				
					<linearGradient id="XMLID_12_" gradientUnits="userSpaceOnUse" x1="-1290.7424" y1="970.1511" x2="-616.2054" y2="970.1511" gradientTransform="matrix(0.294 0 0 0.294 444.6707 -178.3005)">
					<stop  offset="0" style="stop-color:#E6E6E6"/>
					<stop  offset="1" style="stop-color:#999999"/>
				</linearGradient>
				<path id="XMLID_27_" class="st12" d="M259.73,56.1c-43.57,70.82-107.62,113.43-143.09,95.14
					c-26.75-13.78-31.19-57.83-12.41-109.17c-3.54,7.85-5.42,15.23-7.68,22.04c-13.6,50.79-4.62,93.9,22.38,103.69
					c11.48,4.19,24.24,5.89,40.05,0.98c35.46-11.01,75.8-45.95,108-92.86V43.64C264.66,47.8,262.27,51.94,259.73,56.1z"/>
				
					<linearGradient id="XMLID_13_" gradientUnits="userSpaceOnUse" x1="-1290.8639" y1="1057.3119" x2="-616.3044" y2="1057.3119" gradientTransform="matrix(0.294 0 0 0.294 444.6707 -178.3005)">
					<stop  offset="0" style="stop-color:#E6E6E6"/>
					<stop  offset="1" style="stop-color:#999999"/>
				</linearGradient>
				<path id="XMLID_26_" class="st13" d="M168.23,203.3c-20.33,6.3-38.61,5.75-52.94-1.63C78.18,182.52,70.66,126.98,97.24,56.6
					c1.56-5.24,3.44-10.37,5.46-15.34c-41.05,82.87-37.8,158.86,11.09,178.1c40.54,15.93,100.91-11.87,153.19-64.74v-22.36
					C235.65,167.93,200.22,193.38,168.23,203.3z"/>
			</g>
			<g id="XMLID_50_">
				
					<linearGradient id="XMLID_14_" gradientUnits="userSpaceOnUse" x1="-729.29" y1="989.7049" x2="-1401.9583" y2="989.7049" gradientTransform="matrix(0.294 0 0 0.294 444.6707 -178.3005)">
					<stop  offset="0" style="stop-color:#E9EDF7"/>
					<stop  offset="1" style="stop-color:#004EA2"/>
				</linearGradient>
				<path id="XMLID_25_" class="st14" d="M139.41,70.05c17.86-5.54,33.96-5.04,46.55,1.46c24.49,12.61,30.83,58.34,23.82,100.12
					c15.21-59.01,1.06-97.21-27.1-112.65c-12.31-6.76-28.1-6.83-46.38-1.16c-32.97,10.24-69.61,38.47-102.01,77.43v18.24
					C65.1,110.76,105.24,80.64,139.41,70.05z"/>
				
					<linearGradient id="XMLID_15_" gradientUnits="userSpaceOnUse" x1="-752.0856" y1="1093.1238" x2="-1401.9297" y2="1093.1238" gradientTransform="matrix(0.294 0 0 0.294 444.6707 -178.3005)">
					<stop  offset="0" style="stop-color:#E9EDF7"/>
					<stop  offset="1" style="stop-color:#004EA2"/>
				</linearGradient>
				<path id="XMLID_24_" class="st15" d="M41.56,193.91c43.53-70.84,107.6-113.45,143.09-95.17c26.73,13.8,31.16,57.86,12.33,109.19
					c3.58-7.84,5.47-15.23,7.71-22.02c13.59-50.8,4.63-93.92-22.35-103.71c-11.5-4.17-24.27-5.88-40.08-0.97
					c-35.43,11.01-75.77,45.95-107.99,92.86v32.28C36.59,202.19,39.02,198.06,41.56,193.91z"/>
				
					<linearGradient id="XMLID_16_" gradientUnits="userSpaceOnUse" x1="-679.4716" y1="1005.9592" x2="-1401.8827" y2="1005.9592" gradientTransform="matrix(0.294 0 0 0.294 444.6707 -178.3005)">
					<stop  offset="0" style="stop-color:#E9EDF7"/>
					<stop  offset="1" style="stop-color:#004EA2"/>
				</linearGradient>
				<path id="XMLID_23_" class="st16" d="M133.06,46.69c20.32-6.3,38.58-5.73,52.9,1.63c37.15,19.16,44.65,74.71,18.06,145.08
					c-1.6,5.23-3.41,10.37-5.45,15.34c41.04-82.86,37.82-158.85-11.14-178.11c-40.5-15.93-100.9,11.88-153.14,64.74v22.37
					C65.65,82.07,101.06,56.63,133.06,46.69z"/>
			</g>
			<g id="XMLID_46_">
				
					<linearGradient id="XMLID_17_" gradientUnits="userSpaceOnUse" x1="-1290.7999" y1="1100.8285" x2="-616.2651" y2="1100.8285" gradientTransform="matrix(0.294 0 0 0.294 444.6707 -178.3005)">
					<stop  offset="0" style="stop-color:#E6E6E6"/>
					<stop  offset="1" style="stop-color:#999999"/>
				</linearGradient>
				<path id="XMLID_22_" class="st17" d="M164.94,192.21c33.04-10.26,69.61-38.49,102.04-77.43V96.52
					c-30.78,42.72-70.97,72.85-105.1,83.46c-1.41,0.44-2.81,0.75-4.18,1.11v13.08C160.07,193.62,162.46,192.95,164.94,192.21z"/>
				
					<linearGradient id="XMLID_18_" gradientUnits="userSpaceOnUse" x1="-1290.7999" y1="968.3063" x2="-616.2651" y2="968.3063" gradientTransform="matrix(0.294 0 0 0.294 444.6707 -178.3005)">
					<stop  offset="0" style="stop-color:#E6E6E6"/>
					<stop  offset="1" style="stop-color:#999999"/>
				</linearGradient>
				<path id="XMLID_21_" class="st18" d="M266.98,75.92V43.64c-2.32,4.16-4.7,8.3-7.25,12.46c-29.7,48.24-68.85,83.38-102.02,95.11
					v17.91c0.42-0.11,0.81-0.2,1.28-0.34C194.44,157.77,234.78,122.83,266.98,75.92z"/>
				
					<linearGradient id="XMLID_19_" gradientUnits="userSpaceOnUse" x1="-1290.7999" y1="1208.7465" x2="-616.2651" y2="1208.7465" gradientTransform="matrix(0.294 0 0 0.294 444.6707 -178.3005)">
					<stop  offset="0" style="stop-color:#E6E6E6"/>
					<stop  offset="1" style="stop-color:#999999"/>
				</linearGradient>
				<path id="XMLID_20_" class="st19" d="M266.98,154.63v-22.36c-31.32,35.66-66.76,61.11-98.75,71.03
					c-3.6,1.1-7.07,1.94-10.53,2.62v15.94C191.99,215,231.34,190.64,266.98,154.63z"/>
			</g>
		</g>
	</g>
</g>
</svg>
