<?xml version="1.0" encoding="utf-8"?>
<!-- Generator: Adobe Illustrator 25.1.0, SVG Export Plug-In . SVG Version: 6.00 Build 0)  -->
<svg version="1.1" id="レイヤー_1" xmlns="http://www.w3.org/2000/svg" xmlns:xlink="http://www.w3.org/1999/xlink" x="0px"
	 y="0px" viewBox="0 0 800 200" style="enable-background:new 0 0 800 200;" xml:space="preserve">
<style type="text/css">
	.st0{fill:#FFFFFF;}
</style>
<g>
	<path class="st0" d="M440.46,148.71h-15.07l9.59-23.51c1.65-3.98,1.67-5.9-1.64-5.9c-4.02,0-6.16,1.83-8.42,7.49L416,148.71h-15.15
		l16.63-40.64h8.13l0.61,4.62c4.92-3.74,9.16-5.42,14.05-5.42c15.39,0,13.24,9.48,9.36,18.97L440.46,148.71z"/>
	<path class="st0" d="M494.44,131.66h-27.07c-1.69,3.74-2.29,8.53,2.44,8.53c3.79,0,6.3-2.15,7.49-4.86l15.61,0.08
		c-5.47,9.56-12.67,14.11-24.98,14.11c-14.91,0-17.57-7.73-16.2-15.54c2.63-14.9,14.34-26.7,30.75-26.7
		c12.78,0,16.37,6.93,14.83,15.7C496.83,125.68,495.76,128.63,494.44,131.66z M479.68,116.91c-3.55,0-6.57,1.91-9.08,7.17h11.28
		c0.62-1.27,0.97-2.39,1.13-3.27C483.55,117.79,481.81,116.91,479.68,116.91z"/>
	<path class="st0" d="M531.67,120.1h-8.92l-5.29,12.99c-0.26,0.56-0.43,1.12-0.5,1.52c-0.38,2.15,1.14,2.95,5.08,2.95
		c0.79,0,1.58,0,2.54-0.08l-4.69,11.4c-2.4,0.16-4.55,0.32-6.45,0.32c-11.28,0-14.83-3.19-13.76-9.24c0.24-1.36,0.73-2.79,1.42-4.46
		l6.26-15.38h-6.71l4.12-9.96l7.5-2.23l4.32-10.2h15.07l-4.27,10.36h9.23L531.67,120.1z"/>
	<path class="st0" d="M574.13,148.71h-15.94l5.21-25.5l-15.46,25.5h-15.31l5.59-40.64h16.02l-6.72,24.71l14.69-24.71h14.12
		l-5.2,25.9l14.35-25.9h16.49L574.13,148.71z"/>
	<path class="st0" d="M608.86,149.51c-17.91,0-16.98-12.43-13.18-21.92c3.99-9.64,11.47-20.32,27.97-20.32
		c17.83,0,17.03,12.59,13.18,21.92C632.8,139.07,625.43,149.51,608.86,149.51z M620.09,120.26c-5.05,0-8.09,1.99-10.67,8.13
		c-2.54,6.38-0.78,8.45,2.85,8.45c5.13,0,8.26-2.07,10.88-8.45C625.66,122.25,624.04,120.26,620.09,120.26z"/>
	<path class="st0" d="M671.18,120.1c-7.73-0.48-10.38,1.12-12.62,6.7l-8.99,21.92h-15.15l16.63-40.64h8.13l0.62,4.54
		c3.95-3.59,7.96-5.74,16.72-5.34L671.18,120.1z"/>
	<path class="st0" d="M700.23,128.07l5.91,20.64h-17.99l-1.83-16.5l-6.78,16.5h-14.91l22.88-56.34h14.99l-12,29.57l12.47-13.87
		h19.96L700.23,128.07z"/>
	<path id="XMLID_13_" class="st0" d="M253.77,50.49c-34.29,0-41.3,23.25-41.3,23.25l-25.36,66.82h-74.94l34.65-90.07h-31.97
		l-37.79,98.22h138.92l14.52-37.78h17.24l3.1-8.14h-17.22l13.25-34.42c10.1-9.5,24.47-7.29,31.31-6.83
		c1.07,0.06,1.89,0.21,2.58,0.39l-33.38,86.78h31.94l37.79-98.22H253.77z"/>
	<path id="XMLID_7_" class="st0" d="M382.48,50.54l-17.98,46.7l-1.88,5.27l-1.14,2.87h-2.89h-10.07c0,0-2.5,0.05-3.78-2.41
		c-1.03-1.92-0.14-4.03-0.14-4.03l18.63-48.44h-33.24l-37.8,98.23h33.42l11.42-29.68h34.03c25.54,0,35.57-11.44,44.42-34.51
		C425.43,58.68,403.07,51.03,382.48,50.54z"/>
</g>
</svg>
