<?xml version="1.0" encoding="utf-8"?>
<!-- Generator: Adobe Illustrator 25.4.1, SVG Export Plug-In . SVG Version: 6.00 Build 0)  -->
<svg version="1.1" id="レイヤー_1" xmlns="http://www.w3.org/2000/svg" xmlns:xlink="http://www.w3.org/1999/xlink" x="0px"
	 y="0px" viewBox="0 0 1220 290" style="enable-background:new 0 0 1220 290;" xml:space="preserve">
<style type="text/css">
	.st0{fill:#FFFFFF;}
	.st1{fill:#0D4099;}
</style>
<g>
	<g>
		<g id="XMLID_00000104674473682538506580000010116723408075977402_">
			<path id="XMLID_00000164482756983729884590000014932728252010130326_" class="st0" d="M346.89,55.92
				c-61.7,0-74.31,41.83-74.31,41.83l-45.64,120.24H92.11l62.35-162.07H96.95L28.96,232.64h249.96l26.12-67.98h31.03l5.59-14.64
				h-30.98l23.83-61.93C352.67,71,378.52,74.96,390.83,75.8c1.93,0.1,3.39,0.38,4.65,0.71l-60.05,156.14h57.46l67.99-176.72H346.89z
				"/>
		</g>
		<path id="XMLID_00000170996083810919554760000008229748106381758101_" class="st0" d="M578.48,56l-32.36,84.02l-3.38,9.48
			l-2.05,5.16h-5.21h-18.12c0,0-4.5,0.1-6.79-4.33c-1.85-3.46-0.25-7.25-0.25-7.25l33.52-87.15h-59.81l-68.02,176.74h60.13
			l20.54-53.4h61.24c45.95,0,63.99-20.59,79.93-62.09C655.76,70.66,615.52,56.89,578.48,56z"/>
		<g>
			<g>
				<path class="st0" d="M682.79,232.64h-27.12l17.26-42.3c2.97-7.17,3.01-10.61-2.96-10.61c-7.24,0-11.09,3.3-15.15,13.48
					l-16.04,39.43h-27.26l29.93-73.13h14.63l1.09,8.32c8.85-6.74,16.48-9.75,25.29-9.75c27.69,0,23.83,17.06,16.84,34.13
					L682.79,232.64z"/>
				<path class="st0" d="M779.92,201.96h-48.7c-3.03,6.74-4.13,15.34,4.39,15.34c6.81,0,11.33-3.87,13.47-8.75l28.09,0.14
					c-9.85,17.21-22.79,25.38-44.94,25.38c-26.83,0-31.62-13.91-29.15-27.96c4.73-26.82,25.79-48.04,55.32-48.04
					c23,0,29.46,12.48,26.68,28.25C784.23,191.2,782.3,196.51,779.92,201.96z M753.37,175.43c-6.39,0-11.83,3.44-16.33,12.91h20.3
					c1.11-2.29,1.75-4.3,2.03-5.88C760.33,177,757.2,175.43,753.37,175.43z"/>
				<path class="st0" d="M846.91,181.16h-16.04l-9.52,23.37c-0.46,1.01-0.78,2.01-0.91,2.73c-0.68,3.87,2.05,5.31,9.15,5.31
					c1.42,0,2.84,0,4.57-0.14l-8.44,20.51c-4.31,0.29-8.19,0.57-11.6,0.57c-20.3,0-26.68-5.74-24.75-16.63
					c0.43-2.44,1.31-5.02,2.55-8.03l11.27-27.68h-12.07l7.42-17.92l13.49-4.01l7.78-18.35h27.12l-7.69,18.64h16.61L846.91,181.16z"
					/>
				<path class="st0" d="M923.3,232.64h-28.68l9.37-45.89l-27.83,45.89h-27.54l10.06-73.13h28.82l-12.1,44.45l26.44-44.45h25.41
					l-9.35,46.6l25.82-46.6h29.68L923.3,232.64z"/>
				<path class="st0" d="M985.8,234.08c-32.23,0-30.56-22.37-23.71-39.43c7.18-17.35,20.64-36.57,50.32-36.57
					c32.09,0,30.65,22.66,23.71,39.43C1028.87,215.29,1015.62,234.08,985.8,234.08z M1006.01,181.45c-9.09,0-14.55,3.59-19.19,14.63
					c-4.58,11.47-1.4,15.2,5.13,15.2c9.23,0,14.86-3.73,19.58-15.2C1016.03,185.04,1013.11,181.45,1006.01,181.45z"/>
				<path class="st0" d="M1097.92,181.16c-13.9-0.86-18.67,2.01-22.71,12.05l-16.18,39.43h-27.26l29.93-73.13h14.63l1.12,8.17
					c7.1-6.45,14.31-10.32,30.09-9.61L1097.92,181.16z"/>
				<path class="st0" d="M1150.2,195.5l10.63,37.14h-32.37l-3.28-29.68l-12.19,29.68h-26.83l41.16-101.38h26.97l-21.59,53.2
					l22.43-24.95h35.92L1150.2,195.5z"/>
			</g>
		</g>
	</g>
	<g>
		<g id="XMLID_00000029744929719340827680000007156812967814965684_">
			<path id="XMLID_00000144310237524880835490000009184124228144193982_" class="st1" d="M346.89,55.92
				c-61.7,0-74.31,41.83-74.31,41.83l-45.64,120.24H92.11l62.35-162.07H96.95L28.96,232.64h249.96l26.12-67.98h31.03l5.59-14.64
				h-30.98l23.83-61.93C352.67,71,378.52,74.96,390.83,75.8c1.93,0.1,3.39,0.38,4.65,0.71l-60.05,156.14h57.46l67.99-176.72H346.89z
				"/>
		</g>
		<path id="XMLID_00000010271950954555436680000002968049494356348087_" class="st1" d="M578.48,56l-32.36,84.02l-3.38,9.48
			l-2.05,5.16h-5.21h-18.12c0,0-4.5,0.1-6.79-4.33c-1.85-3.46-0.25-7.25-0.25-7.25l33.52-87.15h-59.81l-68.02,176.74h60.13
			l20.54-53.4h61.24c45.95,0,63.99-20.59,79.93-62.09C655.76,70.66,615.52,56.89,578.48,56z"/>
		<g>
			<g>
				<path class="st1" d="M682.79,232.64h-27.12l17.26-42.3c2.97-7.17,3.01-10.61-2.96-10.61c-7.24,0-11.09,3.3-15.15,13.48
					l-16.04,39.43h-27.26l29.93-73.13h14.63l1.09,8.32c8.85-6.74,16.48-9.75,25.29-9.75c27.69,0,23.83,17.06,16.84,34.13
					L682.79,232.64z"/>
				<path class="st1" d="M779.92,201.96h-48.7c-3.03,6.74-4.13,15.34,4.39,15.34c6.81,0,11.33-3.87,13.47-8.75l28.09,0.14
					c-9.85,17.21-22.79,25.38-44.94,25.38c-26.83,0-31.62-13.91-29.15-27.96c4.73-26.82,25.79-48.04,55.32-48.04
					c23,0,29.46,12.48,26.68,28.25C784.23,191.2,782.3,196.51,779.92,201.96z M753.37,175.43c-6.39,0-11.83,3.44-16.33,12.91h20.3
					c1.11-2.29,1.75-4.3,2.03-5.88C760.33,177,757.2,175.43,753.37,175.43z"/>
				<path class="st1" d="M846.91,181.16h-16.04l-9.52,23.37c-0.46,1.01-0.78,2.01-0.91,2.73c-0.68,3.87,2.05,5.31,9.15,5.31
					c1.42,0,2.84,0,4.57-0.14l-8.44,20.51c-4.31,0.29-8.19,0.57-11.6,0.57c-20.3,0-26.68-5.74-24.75-16.63
					c0.43-2.44,1.31-5.02,2.55-8.03l11.27-27.68h-12.07l7.42-17.92l13.49-4.01l7.78-18.35h27.12l-7.69,18.64h16.61L846.91,181.16z"
					/>
				<path class="st1" d="M923.3,232.64h-28.68l9.37-45.89l-27.83,45.89h-27.54l10.06-73.13h28.82l-12.1,44.45l26.44-44.45h25.41
					l-9.35,46.6l25.82-46.6h29.68L923.3,232.64z"/>
				<path class="st1" d="M985.8,234.08c-32.23,0-30.56-22.37-23.71-39.43c7.18-17.35,20.64-36.57,50.32-36.57
					c32.09,0,30.65,22.66,23.71,39.43C1028.87,215.29,1015.62,234.08,985.8,234.08z M1006.01,181.45c-9.09,0-14.55,3.59-19.19,14.63
					c-4.58,11.47-1.4,15.2,5.13,15.2c9.23,0,14.86-3.73,19.58-15.2C1016.03,185.04,1013.11,181.45,1006.01,181.45z"/>
				<path class="st1" d="M1097.92,181.16c-13.9-0.86-18.67,2.01-22.71,12.05l-16.18,39.43h-27.26l29.93-73.13h14.63l1.12,8.17
					c7.1-6.45,14.31-10.32,30.09-9.61L1097.92,181.16z"/>
				<path class="st1" d="M1150.2,195.5l10.63,37.14h-32.37l-3.28-29.68l-12.19,29.68h-26.83l41.16-101.38h26.97l-21.59,53.2
					l22.43-24.95h35.92L1150.2,195.5z"/>
			</g>
			<g>
				<path class="st1" d="M682.79,232.64h-27.12l17.26-42.3c2.97-7.17,3.01-10.61-2.96-10.61c-7.24,0-11.09,3.3-15.15,13.48
					l-16.04,39.43h-27.26l29.93-73.13h14.63l1.09,8.32c8.85-6.74,16.48-9.75,25.29-9.75c27.69,0,23.83,17.06,16.84,34.13
					L682.79,232.64z"/>
				<path class="st1" d="M779.92,201.96h-48.7c-3.03,6.74-4.13,15.34,4.39,15.34c6.81,0,11.33-3.87,13.47-8.75l28.09,0.14
					c-9.85,17.21-22.79,25.38-44.94,25.38c-26.83,0-31.62-13.91-29.15-27.96c4.73-26.82,25.79-48.04,55.32-48.04
					c23,0,29.46,12.48,26.68,28.25C784.23,191.2,782.3,196.51,779.92,201.96z M753.37,175.43c-6.39,0-11.83,3.44-16.33,12.91h20.3
					c1.11-2.29,1.75-4.3,2.03-5.88C760.33,177,757.2,175.43,753.37,175.43z"/>
				<path class="st1" d="M846.91,181.16h-16.04l-9.52,23.37c-0.46,1.01-0.78,2.01-0.91,2.73c-0.68,3.87,2.05,5.31,9.15,5.31
					c1.42,0,2.84,0,4.57-0.14l-8.44,20.51c-4.31,0.29-8.19,0.57-11.6,0.57c-20.3,0-26.68-5.74-24.75-16.63
					c0.43-2.44,1.31-5.02,2.55-8.03l11.27-27.68h-12.07l7.42-17.92l13.49-4.01l7.78-18.35h27.12l-7.69,18.64h16.61L846.91,181.16z"
					/>
				<path class="st1" d="M923.3,232.64h-28.68l9.37-45.89l-27.83,45.89h-27.54l10.06-73.13h28.82l-12.1,44.45l26.44-44.45h25.41
					l-9.35,46.6l25.82-46.6h29.68L923.3,232.64z"/>
				<path class="st1" d="M985.8,234.08c-32.23,0-30.56-22.37-23.71-39.43c7.18-17.35,20.64-36.57,50.32-36.57
					c32.09,0,30.65,22.66,23.71,39.43C1028.87,215.29,1015.62,234.08,985.8,234.08z M1006.01,181.45c-9.09,0-14.55,3.59-19.19,14.63
					c-4.58,11.47-1.4,15.2,5.13,15.2c9.23,0,14.86-3.73,19.58-15.2C1016.03,185.04,1013.11,181.45,1006.01,181.45z"/>
				<path class="st1" d="M1097.92,181.16c-13.9-0.86-18.67,2.01-22.71,12.05l-16.18,39.43h-27.26l29.93-73.13h14.63l1.12,8.17
					c7.1-6.45,14.31-10.32,30.09-9.61L1097.92,181.16z"/>
				<path class="st1" d="M1150.2,195.5l10.63,37.14h-32.37l-3.28-29.68l-12.19,29.68h-26.83l41.16-101.38h26.97l-21.59,53.2
					l22.43-24.95h35.92L1150.2,195.5z"/>
			</g>
			<g>
				<path class="st1" d="M682.79,232.64h-27.12l17.26-42.3c2.97-7.17,3.01-10.61-2.96-10.61c-7.24,0-11.09,3.3-15.15,13.48
					l-16.04,39.43h-27.26l29.93-73.13h14.63l1.09,8.32c8.85-6.74,16.48-9.75,25.29-9.75c27.69,0,23.83,17.06,16.84,34.13
					L682.79,232.64z"/>
				<path class="st1" d="M779.92,201.96h-48.7c-3.03,6.74-4.13,15.34,4.39,15.34c6.81,0,11.33-3.87,13.47-8.75l28.09,0.14
					c-9.85,17.21-22.79,25.38-44.94,25.38c-26.83,0-31.62-13.91-29.15-27.96c4.73-26.82,25.79-48.04,55.32-48.04
					c23,0,29.46,12.48,26.68,28.25C784.23,191.2,782.3,196.51,779.92,201.96z M753.37,175.43c-6.39,0-11.83,3.44-16.33,12.91h20.3
					c1.11-2.29,1.75-4.3,2.03-5.88C760.33,177,757.2,175.43,753.37,175.43z"/>
				<path class="st1" d="M846.91,181.16h-16.04l-9.52,23.37c-0.46,1.01-0.78,2.01-0.91,2.73c-0.68,3.87,2.05,5.31,9.15,5.31
					c1.42,0,2.84,0,4.57-0.14l-8.44,20.51c-4.31,0.29-8.19,0.57-11.6,0.57c-20.3,0-26.68-5.74-24.75-16.63
					c0.43-2.44,1.31-5.02,2.55-8.03l11.27-27.68h-12.07l7.42-17.92l13.49-4.01l7.78-18.35h27.12l-7.69,18.64h16.61L846.91,181.16z"
					/>
				<path class="st1" d="M923.3,232.64h-28.68l9.37-45.89l-27.83,45.89h-27.54l10.06-73.13h28.82l-12.1,44.45l26.44-44.45h25.41
					l-9.35,46.6l25.82-46.6h29.68L923.3,232.64z"/>
				<path class="st1" d="M985.8,234.08c-32.23,0-30.56-22.37-23.71-39.43c7.18-17.35,20.64-36.57,50.32-36.57
					c32.09,0,30.65,22.66,23.71,39.43C1028.87,215.29,1015.62,234.08,985.8,234.08z M1006.01,181.45c-9.09,0-14.55,3.59-19.19,14.63
					c-4.58,11.47-1.4,15.2,5.13,15.2c9.23,0,14.86-3.73,19.58-15.2C1016.03,185.04,1013.11,181.45,1006.01,181.45z"/>
				<path class="st1" d="M1097.92,181.16c-13.9-0.86-18.67,2.01-22.71,12.05l-16.18,39.43h-27.26l29.93-73.13h14.63l1.12,8.17
					c7.1-6.45,14.31-10.32,30.09-9.61L1097.92,181.16z"/>
				<path class="st1" d="M1150.2,195.5l10.63,37.14h-32.37l-3.28-29.68l-12.19,29.68h-26.83l41.16-101.38h26.97l-21.59,53.2
					l22.43-24.95h35.92L1150.2,195.5z"/>
			</g>
		</g>
	</g>
</g>
</svg>
